HIERARCHY
ROOT hip
{
  OFFSET 0 0 0
  CHANNELS 6 Xposition Yposition Zposition Zrotation Yrotation Xrotation
  JOINT abdomen
  {
    OFFSET 0 20.6881 -0.73152
    CHANNELS 3 Zrotation Xrotation Yrotation
    JOINT chest
    {
      OFFSET 0 11.7043 -0.48768
      CHANNELS 3 Zrotation Xrotation Yrotation
      JOINT neck
      {
        OFFSET 0 22.1894 -2.19456
        CHANNELS 3 Zrotation Xrotation Yrotation
        JOINT head
        {
          OFFSET -0.24384 7.07133 1.2192
          CHANNELS 3 Zrotation Xrotation Yrotation
          JOINT leftEye
          {
            OFFSET 4.14528 8.04674 8.04672
            CHANNELS 3 Zrotation Xrotation Yrotation
            End Site
            {
              OFFSET 1 0 0
            }
          }
          JOINT rightEye
          {
            OFFSET -3.6576 8.04674 8.04672
            CHANNELS 3 Zrotation Xrotation Yrotation
            End Site
            {
              OFFSET 1 0 0
            }
          }
        }
      }
      JOINT rCollar
      {
        OFFSET -2.68224 19.2634 -4.8768
        CHANNELS 3 Zrotation Xrotation Yrotation
        JOINT rShldr
        {
          OFFSET -8.77824 -1.95073 1.46304
          CHANNELS 3 Zrotation Xrotation Yrotation
          JOINT rForeArm
          {
            OFFSET -28.1742 -1.7115 0.48768
            CHANNELS 3 Zrotation Xrotation Yrotation
            JOINT rHand
            {
              OFFSET -22.5879 0.773209 7.07136
              CHANNELS 3 Zrotation Xrotation Yrotation
              JOINT rThumb1
              {
                OFFSET -1.2192 -0.487915 3.41376
                CHANNELS 3 Zrotation Xrotation Yrotation
                JOINT rThumb2
                {
                  OFFSET -3.37035 -0.52449 3.41376
                  CHANNELS 3 Zrotation Xrotation Yrotation
                  End Site
                  {
                    OFFSET -1.78271 -1.18214 1.43049
                  }
                }
              }
              JOINT rIndex1
              {
                OFFSET -7.75947 0.938293 5.60832
                CHANNELS 3 Zrotation Xrotation Yrotation
                JOINT rIndex2
                {
                  OFFSET -2.54057 -0.884171 1.56538
                  CHANNELS 3 Zrotation Xrotation Yrotation
                  End Site
                  {
                    OFFSET -1.62519 -0.234802 1.16502
                  }
                }
              }
              JOINT rMid1
              {
                OFFSET -8.24714 1.18213 3.41376
                CHANNELS 3 Zrotation Xrotation Yrotation
                JOINT rMid2
                {
                  OFFSET -3.10165 -0.590103 1.0647
                  CHANNELS 3 Zrotation Xrotation Yrotation
                  End Site
                  {
                    OFFSET -2.48547 -0.328903 0.83742
                  }
                }
              }
              JOINT rRing1
              {
                OFFSET -8.82822 0.546677 1.51678
                CHANNELS 3 Zrotation Xrotation Yrotation
                JOINT rRing2
                {
                  OFFSET -2.60934 -0.819778 -0.0198488
                  CHANNELS 3 Zrotation Xrotation Yrotation
                  End Site
                  {
                    OFFSET -2.33842 -0.294052 0.168128
                  }
                }
              }
              JOINT rPinky1
              {
                OFFSET -8.27202 -0.0477905 -0.4584
                CHANNELS 3 Zrotation Xrotation Yrotation
                JOINT rPinky2
                {
                  OFFSET -1.82734 -0.647385 -0.700984
                  CHANNELS 3 Zrotation Xrotation Yrotation
                  End Site
                  {
                    OFFSET -1.69225 -0.51767 -0.607171
                  }
                }
              }
            }
          }
        }
      }
      JOINT lCollar
      {
        OFFSET 2.68224 19.2634 -4.8768
        CHANNELS 3 Zrotation Xrotation Yrotation
        JOINT lShldr
        {
          OFFSET 8.77824 -1.95073 1.46304
          CHANNELS 3 Zrotation Xrotation Yrotation
          JOINT lForeArm
          {
            OFFSET 28.1742 -1.7115 0.48768
            CHANNELS 3 Zrotation Xrotation Yrotation
            JOINT lHand
            {
              OFFSET 22.5879 0.773209 7.07136
              CHANNELS 3 Zrotation Xrotation Yrotation
              JOINT lThumb1
              {
                OFFSET 1.2192 -0.487915 3.41376
                CHANNELS 3 Zrotation Xrotation Yrotation
                JOINT lThumb2
                {
                  OFFSET 3.37035 -0.52449 3.41376
                  CHANNELS 3 Zrotation Xrotation Yrotation
                  End Site
                  {
                    OFFSET 1.78271 -1.18214 1.43049
                  }
                }
              }
              JOINT lIndex1
              {
                OFFSET 7.75947 0.938293 5.60832
                CHANNELS 3 Zrotation Xrotation Yrotation
                JOINT lIndex2
                {
                  OFFSET 2.54057 -0.884171 1.56538
                  CHANNELS 3 Zrotation Xrotation Yrotation
                  End Site
                  {
                    OFFSET 1.62519 -0.234802 1.16502
                  }
                }
              }
              JOINT lMid1
              {
                OFFSET 8.24714 1.18213 3.41376
                CHANNELS 3 Zrotation Xrotation Yrotation
                JOINT lMid2
                {
                  OFFSET 3.10165 -0.590103 1.0647
                  CHANNELS 3 Zrotation Xrotation Yrotation
                  End Site
                  {
                    OFFSET 2.48547 -0.328903 0.83742
                  }
                }
              }
              JOINT lRing1
              {
                OFFSET 8.82822 0.546677 1.51678
                CHANNELS 3 Zrotation Xrotation Yrotation
                JOINT lRing2
                {
                  OFFSET 2.60934 -0.819778 -0.0198488
                  CHANNELS 3 Zrotation Xrotation Yrotation
                  End Site
                  {
                    OFFSET 2.33842 -0.294052 0.168128
                  }
                }
              }
              JOINT lPinky1
              {
                OFFSET 8.27202 -0.0477905 -0.4584
                CHANNELS 3 Zrotation Xrotation Yrotation
                JOINT lPinky2
                {
                  OFFSET 1.82734 -0.647385 -0.700984
                  CHANNELS 3 Zrotation Xrotation Yrotation
                  End Site
                  {
                    OFFSET 1.69225 -0.51767 -0.607171
                  }
                }
              }
            }
          }
        }
      }
    }
  }
  JOINT rButtock
  {
    OFFSET -8.77824 4.35084 1.2192
    CHANNELS 3 Zrotation Xrotation Yrotation
    JOINT rThigh
    {
      OFFSET 0 -1.70687 -2.19456
      CHANNELS 3 Zrotation Xrotation Yrotation
      JOINT rShin
      {
        OFFSET 0 -36.8199 0.73152
        CHANNELS 3 Zrotation Xrotation Yrotation
        JOINT rFoot
        {
          OFFSET 0.73152 -45.1104 -5.12064
          CHANNELS 3 Zrotation Xrotation Yrotation
          End Site
          {
            OFFSET -1.1221 -3.69964 12.103
          }
        }
      }
    }
  }
  JOINT lButtock
  {
    OFFSET 8.77824 4.35084 1.2192
    CHANNELS 3 Zrotation Xrotation Yrotation
    JOINT lThigh
    {
      OFFSET 0 -1.70687 -2.19456
      CHANNELS 3 Zrotation Xrotation Yrotation
      JOINT lShin
      {
        OFFSET 0 -36.8199 0.73152
        CHANNELS 3 Zrotation Xrotation Yrotation
        JOINT lFoot
        {
          OFFSET -0.73152 -45.1104 -5.12064
          CHANNELS 3 Zrotation Xrotation Yrotation
          End Site
          {
            OFFSET 1.1221 -3.69964 12.103
          }
        }
      }
    }
  }
}
MOTION
Frames:	4
Frame Time:	0.00833333
53.2225 85.1388 194.25 0.0 0.0 0.0 0.41059 -0.00336425 0.0117806 0.113459 -0.00539521 0.0196593 6.88792e-15 -1.59028e-15 -1.61513e-16 2.0627e-14 3.18055e-15 -4.5969e-16 -0.0 0.0 0.0 -0.0 0.0 0.0 3.37812e-15 -7.76503e-19 4.96962e-17 7.55382e-14 -3.66509e-16 -1.98785e-16 1.24474e-12 -3.74908e-13 -6.04305e-14 1.42146e-11 3.52719e-13 -2.73528e-13 3.35357e-11 -4.36094e-14 -7.18805e-13 5.79068e-11 -7.63333e-14 -1.24519e-12 3.35413e-11 -3.97569e-14 -7.28347e-13 7.73091 5.47488 0.417314 3.35375e-11 -4.28381e-14 -7.18805e-13 2.90554 0.965183 0.102902 3.35479e-11 -4.24405e-14 -7.17215e-13 10.2786 0.731801 0.0259123 3.35374e-11 -4.45278e-14 -7.09264e-13 2.22167 -0.733487 -0.20892 3.48018e-15 -7.76503e-19 -1.49089e-16 6.96193e-14 -2.67117e-16 -2.38542e-15 1.24022e-12 3.69739e-13 -3.81667e-14 1.42186e-11 -3.80176e-13 -2.8625e-13 3.35362e-11 -2.2762e-14 -7.12444e-13 5.79235e-11 -4.45278e-14 -1.22292e-12 3.35306e-11 -1.94809e-14 -6.96541e-13 -7.73091 5.47488 -0.417314 3.35351e-11 -2.25621e-14 -7.15625e-13 -2.90554 0.965183 -0.102902 3.35287e-11 -2.21645e-14 -7.10854e-13 -10.2786 0.731801 -0.0259123 3.35382e-11 -2.34566e-14 -7.15625e-13 -2.22167 -0.733487 0.20892 -2.03217e-16 0.0 -3.88251e-19 0.770602 -4.17183 -0.0656815 -0.00265486 2.00555 -0.0182702 -0.461827 2.16687 0.0961006 2.03217e-16 0.0 3.88251e-19 -0.143237 -2.55995 0.0260685 0.00716322 -0.914091 0.062172 0.453776 3.47457 -0.121225
52.9637 83.4454 187.069 175.978 -4.1365 -160.242 -2.85948 -6.92661 -1.06732 1.0647 3.53806 -0.295578 -0.392494 4.48724 -0.857156 2.54013 -14.7586 -1.22644 -0.0 0.0 0.0 -0.0 0.0 0.0 -5.03685e-14 7.35919e-14 -8.47941e-16 23.0299 3.30666 0.673406 -4.16857 -1.88379 6.52228 -0.000184795 0.263106 0.0369888 1.09984e-10 7.23368e-10 -7.28695e-10 1.86756e-10 1.2532e-09 -1.26044e-09 1.09989e-10 7.23371e-10 -7.28703e-10 7.73091 5.47488 0.417314 1.09985e-10 7.23369e-10 -7.28694e-10 2.90554 0.965183 0.102902 1.09996e-10 7.23369e-10 -7.28693e-10 10.2786 0.731801 0.0259123 1.09985e-10 7.23367e-10 -7.28684e-10 2.22167 -0.733487 -0.20892 -5.02898e-14 7.35945e-14 -1.0444e-15 -21.3274 5.69509 -2.15137 2.60029 -0.976302 -4.25749 -0.00183852 1.18815 -0.166978 -2.60229e-10 3.59779e-10 1.22227e-09 -4.44149e-10 6.25155e-10 2.11425e-09 -2.60235e-10 3.59781e-10 1.22229e-09 -7.73091 5.47488 -0.417314 -2.60233e-10 3.59776e-10 1.22227e-09 -2.90554 0.965183 -0.102902 -2.60236e-10 3.59778e-10 1.22227e-09 -10.2786 0.731801 -0.0259123 -2.60226e-10 3.59777e-10 1.22227e-09 -2.22167 -0.733487 0.20892 -2.03217e-16 0.0 -3.88251e-19 -0.601118 -9.37229 1.80705 0.010538 4.87303 0.0765465 -0.789709 -5.113 -2.44226 2.03217e-16 0.0 3.88251e-19 -1.84705 -7.93406 -2.88373 0.00536099 2.37535 0.00579171 0.466548 0.766316 0.165653
52.9357 83.4042 187.126 175.808 -3.9204 -160.205 -6.62376 -14.2224 -2.25713 2.11892 7.28583 -0.631172 -0.660109 9.22515 -1.78053 4.43878 -30.3313 -2.82614 -0.0 0.0 0.0 -0.0 0.0 0.0 -1.09705e-13 1.57285e-13 -2.08724e-15 47.2871 6.83661 1.39939 -8.12336 -3.80155 13.4573 -0.000955234 0.495094 0.0696161 2.10937e-10 1.52e-09 -1.55141e-09 3.57543e-10 2.63338e-09 -2.68356e-09 2.10941e-10 1.52e-09 -1.55141e-09 7.73091 5.47488 0.417314 2.10937e-10 1.52e-09 -1.5514e-09 2.90554 0.965183 0.102902 2.10949e-10 1.52e-09 -1.5514e-09 10.2786 0.731801 0.0259123 2.10936e-10 1.52e-09 -1.55139e-09 2.22167 -0.733487 -0.20892 -1.09649e-13 1.57291e-13 -2.27981e-15 -43.3959 11.7201 -4.51253 5.20956 -1.99945 -8.79179 0.00434025 2.36189 -0.332255 -5.87938e-10 7.69343e-10 2.60645e-09 -1.00399e-09 1.33687e-09 4.50856e-09 -5.87944e-10 7.69344e-10 2.60647e-09 -7.73091 5.47488 -0.417314 -5.87945e-10 7.69336e-10 2.60645e-09 -2.90554 0.965183 -0.102902 -5.87946e-10 7.6934e-10 2.60646e-09 -10.2786 0.731801 -0.0259123 -5.87935e-10 7.69339e-10 2.60644e-09 -2.22167 -0.733487 0.20892 -2.03217e-16 0.0 -3.88251e-19 -1.68481 -14.8372 3.84529 0.014222 7.91872 0.178743 -1.85203 -12.8699 -5.20382 2.03217e-16 0.0 3.88251e-19 -4.27169 -13.5313 -6.07155 0.0104377 5.84099 -0.0539184 0.509711 -2.09684 0.471786
52.8757 83.343 187.189 175.585 -3.6693 -160.151 -10.2275 -20.7427 -3.42436 3.08586 10.6237 -0.940483 -0.765186 13.4495 -2.63593 5.09401 -44.1778 -4.96401 -0.0 0.0 0.0 -0.0 0.0 0.0 -1.57862e-13 2.20777e-13 -2.64322e-15 68.8534 9.91447 2.04744 -11.2421 -5.35904 19.6456 -0.0015736 0.789316 0.110976 2.62882e-10 2.17019e-09 -2.18465e-09 4.44453e-10 3.75977e-09 -3.77882e-09 2.62884e-10 2.17019e-09 -2.18465e-09 7.73091 5.47488 0.417314 2.6288e-10 2.17019e-09 -2.18464e-09 2.90554 0.965183 0.102902 2.62893e-10 2.17019e-09 -2.18464e-09 10.2786 0.731801 0.0259123 2.62879e-10 2.17019e-09 -2.18463e-09 2.22167 -0.733487 -0.20892 -1.5783e-13 2.20785e-13 -2.83501e-15 -62.6525 16.9867 -6.71652 7.36915 -2.8643 -12.7868 0.0152943 3.56434 -0.501796 -8.47759e-10 1.07938e-09 3.66824e-09 -1.4483e-09 1.87555e-09 6.34521e-09 -8.47765e-10 1.07938e-09 3.66826e-09 -7.73091 5.47488 -0.417314 -8.47768e-10 1.07937e-09 3.66824e-09 -2.90554 0.965183 -0.102902 -8.47767e-10 1.07938e-09 3.66824e-09 -10.2786 0.731801 -0.0259123 -8.47755e-10 1.07938e-09 3.66823e-09 -2.22167 -0.733487 0.20892 -2.03217e-16 0.0 -3.88251e-19 -2.26958 -19.6928 5.82132 0.00801694 10.6079 0.269941 -3.46954 -19.5118 -7.94885 2.03217e-16 0.0 3.88251e-19 -6.96358 -18.493 -9.09365 0.0213148 8.95423 -0.108288 0.573535 -4.64982 0.74136
